<svg width="22" height="28" viewBox="0 0 22 28" fill="none" xmlns="http://www.w3.org/2000/svg">
<path fill-rule="evenodd" clip-rule="evenodd" d="M5.58501 25.1539C5.65604 26.2762 4.53167 27.0471 3.6794 26.3177C0.236276 23.3711 -0.895194 17.3564 0.731256 11.2604C2.4677 4.75204 6.78837 0.251606 11.579 0.00172032C12.4189 -0.0420695 13.0317 0.757194 13.16 1.59177C13.2581 2.23023 13.4091 2.87586 13.4789 3.4478C13.7494 5.66604 13.1921 7.89531 11.9109 9.72105L7.4327 16.1018C5.99373 18.1522 5.29832 20.6246 5.45671 23.1269L5.58501 25.1539ZM16.5615 0.725433C16.586 0.608026 16.7092 0.618819 16.8173 0.669551C21.588 2.9063 23.0918 9.75019 21.218 16.7733C19.5403 23.0614 15.4534 27.4748 10.856 27.9921C9.87123 28.1029 9.15652 27.0258 9.08077 26.0335C8.99619 24.9265 8.73091 23.7298 8.67694 22.877C8.54738 20.8296 9.11628 18.8069 10.2937 17.1293L14.7718 10.7485C16.3379 8.51699 17.0188 5.79234 16.6884 3.08114C16.5011 1.54495 16.5146 0.951387 16.5615 0.725433Z" fill="currentColor"/>
</svg>
