<svg width="31" height="26" viewBox="0 0 31 26" fill="none" xmlns="http://www.w3.org/2000/svg">
<path d="M30.9341 7.19101C30.7713 6.15176 30.244 5.25336 29.5074 4.6557C28.7708 4.05422 27.8519 3.74588 26.9215 3.74968C26.495 3.74968 26.0647 3.8144 25.6459 3.94383C24.8706 1.31334 20.8308 6.26115e-06 14.0694 6.26115e-06C6.30778 -0.00380052 2.12844 1.72828 2.36493 5.19626C2.48124 6.89789 3.07829 10.2326 4.68722 13.2971C3.99712 13.5407 3.3458 13.8491 2.7565 14.2183C2.05478 14.6599 1.44222 15.1929 0.965358 15.8172C0.488494 16.4415 0.147324 17.1648 0.0348924 17.9604C0.0116308 18.1088 0 18.2649 0 18.4172C0 18.8969 0.104677 19.3727 0.298524 19.8219C0.635818 20.6061 1.22511 21.3065 2.00438 21.9309C3.17521 22.8635 4.79577 23.6325 6.84667 24.1845C8.89757 24.7365 11.3788 25.06 14.2826 25.0638C18.683 25.0638 22.1334 24.3139 24.5682 23.1604C25.7855 22.5818 26.7509 21.9004 27.4487 21.1162C27.7977 20.7241 28.0768 20.3054 28.2706 19.86C28.4645 19.4146 28.573 18.9387 28.573 18.4591C28.573 18.3525 28.5692 18.2497 28.5575 18.1431C28.48 17.3323 28.1543 16.5785 27.6852 15.9352C26.9796 14.9683 25.9522 14.2107 24.7698 13.6625C24.3704 13.4798 23.9517 13.3199 23.5214 13.1829C23.595 13.042 23.6648 12.9012 23.7346 12.7603C24.3433 12.9925 24.9675 13.1029 25.5723 13.1029C26.3167 13.1029 27.03 12.9431 27.6697 12.6652C28.6312 12.2502 29.4415 11.584 30.0346 10.7656C30.6201 9.94712 30.9961 8.96116 31 7.89526C31 7.66305 30.9806 7.42703 30.9418 7.19101H30.9341ZM14.0694 2.42112C18.683 2.42112 22.4203 3.35378 22.4203 4.49962C22.4203 5.64546 18.683 6.57812 14.0694 6.57812C9.45585 6.57812 5.71848 5.64926 5.71848 4.49962C5.71848 3.34997 9.45585 2.42112 14.0694 2.42112ZM24.7194 16.0075C25.2466 16.3501 25.6692 16.7384 25.9561 17.1381C26.2469 17.5378 26.402 17.9375 26.4446 18.3373C26.4485 18.3753 26.4524 18.4134 26.4524 18.4515C26.4524 18.6266 26.4136 18.8169 26.3205 19.0339C26.1577 19.4108 25.8049 19.8676 25.2234 20.3244C24.3549 21.0134 22.9825 21.691 21.1448 22.1783C19.3072 22.6694 17.0081 22.9777 14.2826 22.9777C10.1111 22.9777 6.94747 22.2506 4.91208 21.2723C3.89632 20.785 3.16358 20.2368 2.71773 19.7267C2.49287 19.4717 2.34167 19.228 2.24862 19.0111C2.15558 18.7903 2.11681 18.5961 2.11681 18.4172C2.11681 18.3601 2.12069 18.303 2.12844 18.2459C2.18659 17.8462 2.35718 17.4541 2.6557 17.062C3.10155 16.4757 3.83817 15.92 4.75313 15.505C5.08267 15.3565 5.43934 15.2347 5.80378 15.1243C6.19922 15.6763 6.62956 16.2093 7.11031 16.6965C7.5988 17.1914 8.0524 17.5911 8.49825 17.9147C8.03689 18.1774 7.77326 18.4743 7.77326 18.7903C7.77326 19.8904 10.933 20.7812 14.8293 20.7812C18.7256 20.7812 21.8853 19.8904 21.8853 18.7903C21.8853 18.2916 21.2379 17.8424 20.1717 17.4922C20.447 17.2561 20.7261 16.9935 21.0208 16.6965C21.5325 16.175 21.9861 15.6116 22.4009 15.0216C23.2694 15.2423 24.068 15.585 24.7116 16.0075H24.7194ZM27.9682 8.74037C27.7705 9.17053 27.4138 9.58928 26.9796 9.87479C26.5454 10.1679 26.053 10.3278 25.5645 10.3278C25.3009 10.3278 25.0334 10.2783 24.7543 10.1717C25.0722 9.18957 25.3087 8.24929 25.4676 7.408C25.6653 7.10345 25.8863 6.89408 26.1112 6.75323C26.3826 6.58573 26.6617 6.51721 26.9176 6.5134C27.22 6.5134 27.4875 6.60857 27.693 6.77988C27.8946 6.95118 28.0652 7.19101 28.1388 7.62498C28.1543 7.71254 28.1582 7.80009 28.1582 7.89146C28.1582 8.16174 28.0923 8.45105 27.9605 8.74037H27.9682Z" fill="currentColor"/>
</svg>
