<svg width="491" height="205" viewBox="0 0 491 205" fill="none" xmlns="http://www.w3.org/2000/svg">
<path d="M413.094 104.511C413.094 107.641 412.723 111.06 411.982 114.767C411.323 118.474 410.293 122.181 408.892 125.888C407.492 129.595 405.762 133.22 403.702 136.763C401.725 140.223 399.419 143.312 396.782 146.03C394.229 148.749 391.345 150.891 388.132 152.456C385.002 154.104 381.624 154.927 378 154.927C375.281 154.927 372.933 154.186 370.956 152.703C368.979 151.303 367.29 149.49 365.89 147.266C364.572 145.042 363.583 142.653 362.924 140.099C362.265 137.463 361.936 134.991 361.936 132.685C361.936 129.966 362.306 127.289 363.048 124.653C365.354 117.074 369.061 110.318 374.169 104.387C379.277 98.4557 385.496 94.0072 392.828 91.0415C392.993 90.9591 393.199 90.9179 393.446 90.9179C394.023 90.9179 394.435 91.1239 394.682 91.5358C395.011 91.9477 395.176 92.4008 395.176 92.8951C395.176 93.4717 394.846 93.966 394.187 94.3779C393.034 95.0369 391.881 95.696 390.727 96.355C389.574 96.9317 388.421 97.6731 387.267 98.5793C382.737 101.875 378.865 105.952 375.652 110.813C372.439 115.673 370.009 120.781 368.361 126.135C367.785 127.865 367.496 129.801 367.496 131.943C367.496 133.673 367.743 135.527 368.238 137.504C368.732 139.481 369.473 141.335 370.462 143.065C371.45 144.712 372.686 146.113 374.169 147.266C375.734 148.337 377.547 148.872 379.606 148.872C380.924 148.872 382.16 148.625 383.313 148.131C384.549 147.637 385.702 147.019 386.773 146.277C389.904 144.053 392.705 141.17 395.176 137.628C397.647 134.085 399.748 130.296 401.478 126.259C403.208 122.14 404.526 117.98 405.432 113.778C406.339 109.495 406.792 105.458 406.792 101.669V100.186C406.627 98.0438 405.885 96.2315 404.567 94.7486C403.332 93.2658 401.766 92.0713 399.872 91.1651C399.295 90.9179 398.718 90.712 398.142 90.5472C397.647 90.3825 397.153 90.1765 396.659 89.9294C395.835 89.5998 395.423 89.0232 395.423 88.1994C395.423 87.6227 395.588 87.1284 395.917 86.7165C396.247 86.3046 396.7 86.1399 397.277 86.2223H397.4C399.213 86.387 400.984 86.7989 402.714 87.458C404.526 88.117 406.133 89.0232 407.533 90.1765C408.933 91.3298 410.087 92.6891 410.993 94.2543C411.982 95.8196 412.599 97.5907 412.847 99.5679C413.011 100.392 413.094 101.215 413.094 102.039C413.094 102.781 413.094 103.604 413.094 104.511Z" fill="black"/>
<path d="M369.474 89.6821C369.474 90.7531 368.979 91.3709 367.991 91.5357C367.579 91.7004 367.167 91.7828 366.755 91.7828C366.426 91.7004 366.055 91.7004 365.643 91.7828C364.655 91.8652 363.666 91.9888 362.677 92.1535C361.771 92.3183 360.824 92.4831 359.835 92.6478C355.387 93.554 351.021 95.0368 346.737 97.0964C342.535 99.0735 338.869 101.71 335.739 105.005C334.833 105.993 334.091 107.064 333.515 108.218C333.02 109.289 332.773 110.524 332.773 111.925C332.773 112.831 333.268 113.531 334.256 114.025C335.245 114.52 336.439 115.014 337.84 115.508C339.323 116.003 340.888 116.538 342.535 117.115C344.265 117.691 345.831 118.515 347.231 119.586C348.714 120.657 349.95 122.058 350.938 123.788C351.927 125.435 352.421 127.577 352.421 130.213C352.421 133.261 351.844 136.186 350.691 138.987C349.538 141.788 347.931 144.3 345.872 146.525C343.812 148.666 341.423 150.355 338.705 151.591C335.986 152.909 333.103 153.568 330.055 153.568C327.171 153.568 324.618 152.95 322.393 151.714C320.252 150.479 318.439 148.872 316.956 146.895C315.474 144.918 314.361 142.694 313.62 140.222C312.879 137.669 312.508 135.074 312.508 132.437C312.508 131.943 312.508 131.325 312.508 130.584C312.59 129.76 312.673 128.978 312.755 128.236C312.92 127.495 313.167 126.836 313.496 126.259C313.826 125.682 314.32 125.394 314.979 125.394C315.391 125.394 315.803 125.559 316.215 125.888C316.709 126.218 316.956 126.63 316.956 127.124C316.956 129.019 317.162 131.119 317.574 133.426C318.068 135.733 318.81 137.875 319.798 139.852C320.787 141.829 322.105 143.518 323.753 144.918C325.4 146.236 327.419 146.895 329.808 146.895C331.95 146.895 334.009 146.442 335.986 145.536C337.963 144.547 339.693 143.27 341.176 141.705C342.741 140.14 343.936 138.369 344.76 136.392C345.666 134.332 346.119 132.232 346.119 130.09V128.854C346.119 127.453 345.625 126.3 344.636 125.394C343.73 124.488 342.577 123.746 341.176 123.17C339.776 122.511 338.252 121.893 336.604 121.316C334.956 120.739 333.432 120.08 332.032 119.339C330.631 118.515 329.437 117.527 328.448 116.373C327.542 115.22 327.089 113.696 327.089 111.801C327.089 109.824 327.501 107.929 328.325 106.117C329.231 104.305 330.384 102.698 331.785 101.298C336.645 96.6021 342.206 93.2245 348.467 91.165C354.81 89.0231 361.318 87.9521 367.991 87.9521C368.485 87.9521 368.856 88.1581 369.103 88.57C369.35 88.8995 369.474 89.2702 369.474 89.6821Z" fill="black"/>
<path d="M316.956 97.4668C316.956 99.5263 316.462 101.586 315.474 103.645C314.485 105.622 313.208 107.517 311.643 109.33C310.16 111.142 308.513 112.789 306.7 114.272C304.888 115.755 303.199 117.032 301.634 118.103C299.245 119.751 296.732 121.275 294.096 122.675C291.542 124.076 288.741 124.776 285.693 124.776C285.034 124.776 284.293 124.693 283.469 124.529C282.727 124.364 282.357 123.828 282.357 122.922C282.357 121.769 282.892 121.069 283.963 120.822C284.21 120.739 284.499 120.698 284.828 120.698C285.158 120.698 285.487 120.657 285.817 120.574C286.723 120.41 287.588 120.121 288.412 119.709C289.318 119.298 290.224 118.844 291.13 118.35C292.531 117.444 294.302 116.167 296.444 114.519C298.586 112.872 300.686 111.059 302.746 109.082C304.805 107.105 306.535 105.087 307.936 103.027C309.419 100.968 310.16 99.032 310.16 97.2196C310.16 96.0663 309.542 95.4896 308.307 95.4896C307.812 95.4896 307.318 95.572 306.824 95.7368C306.329 95.9015 305.835 96.0663 305.341 96.231C301.387 97.5491 297.762 99.5674 294.467 102.286C291.171 104.922 288.329 108.011 285.94 111.554C283.551 115.096 281.657 118.886 280.256 122.922C278.938 126.959 278.279 130.996 278.279 135.032C278.279 136.35 278.361 137.874 278.526 139.604C278.773 141.252 279.185 142.817 279.762 144.3C280.421 145.783 281.286 147.06 282.357 148.131C283.428 149.119 284.828 149.613 286.558 149.613C287.217 149.613 287.835 149.49 288.412 149.243C288.988 149.078 289.565 148.831 290.142 148.501C292.366 147.266 294.425 145.618 296.32 143.558C298.215 141.417 299.904 139.275 301.387 137.133C301.799 136.639 302.169 136.103 302.499 135.526C302.911 134.95 303.323 134.373 303.734 133.796C303.982 133.385 304.394 133.179 304.97 133.179C305.464 133.179 305.918 133.343 306.329 133.673C306.824 134.002 307.071 134.455 307.071 135.032C307.071 135.197 306.988 135.444 306.824 135.774C305.835 137.586 304.599 139.604 303.117 141.829C301.634 143.97 299.986 145.989 298.174 147.883C296.361 149.778 294.384 151.343 292.242 152.579C290.183 153.897 288 154.556 285.693 154.556C283.139 154.556 280.998 153.815 279.268 152.332C277.62 150.932 276.302 149.202 275.313 147.142C274.325 145 273.624 142.735 273.213 140.346C272.801 137.874 272.595 135.65 272.595 133.673C272.595 127.412 273.913 121.439 276.549 115.755C279.185 109.989 282.727 104.922 287.176 100.556C288.494 99.2379 290.018 97.9198 291.748 96.6018C293.478 95.2013 295.29 93.9656 297.185 92.8946C299.162 91.7413 301.139 90.8351 303.117 90.1761C305.176 89.4347 307.153 89.064 309.048 89.064C311.437 89.064 313.332 89.8878 314.732 91.5354C316.215 93.1006 316.956 95.0777 316.956 97.4668Z" fill="black"/>
<path d="M268.146 105.128C268.146 110.401 267.198 115.508 265.304 120.451C263.491 125.311 261.143 129.966 258.26 134.414C256.86 136.474 255.336 138.492 253.688 140.469C252.123 142.364 250.352 144.053 248.374 145.536C246.48 147.019 244.379 148.213 242.072 149.119C239.848 150.025 237.418 150.479 234.782 150.479C234.452 150.479 233.917 150.437 233.175 150.355C232.516 150.355 232.063 150.314 231.816 150.231C230.498 149.902 229.303 149.202 228.232 148.131C227.162 147.06 226.379 145.906 225.885 144.671C224.896 147.307 223.619 150.602 222.054 154.556C220.489 158.593 218.676 162.836 216.617 167.284C214.557 171.733 212.292 176.181 209.82 180.63C207.267 185.161 204.589 189.197 201.788 192.74C198.905 196.364 195.898 199.289 192.768 201.513C189.555 203.737 186.301 204.85 183.006 204.85C180.699 204.85 178.64 204.396 176.827 203.49C175.015 202.666 173.408 201.513 172.008 200.03C170.525 198.63 169.207 197.023 168.054 195.211C166.9 193.481 165.829 191.71 164.841 189.898C164.676 189.568 164.594 189.321 164.594 189.156C164.594 188.662 164.841 188.209 165.335 187.797C165.747 187.467 166.159 187.303 166.571 187.303C167.148 187.303 167.601 187.55 167.93 188.044C168.342 188.703 168.754 189.321 169.166 189.898C169.578 190.474 169.99 191.092 170.402 191.751C171.802 193.728 173.491 195.623 175.468 197.435C177.445 199.248 179.752 200.154 182.388 200.154C184.777 200.154 187.166 199.289 189.555 197.559C191.862 195.829 194.127 193.563 196.351 190.763C198.576 187.962 200.676 184.831 202.653 181.371C204.631 177.994 206.443 174.616 208.091 171.238C209.738 167.861 211.221 164.648 212.539 161.6C213.775 158.634 214.763 156.245 215.505 154.433C218.388 147.101 220.942 139.728 223.166 132.314C225.39 124.9 227.491 117.362 229.468 109.7C230.127 107.147 230.745 104.634 231.322 102.163C231.981 99.6912 232.64 97.1786 233.299 94.6248C233.628 93.5538 233.876 92.4829 234.04 91.4119C234.287 90.2586 234.617 89.1465 235.029 88.0755C235.358 87.2517 235.935 86.8398 236.759 86.8398C237.336 86.8398 237.83 87.0046 238.242 87.3341C238.654 87.5813 238.86 87.9932 238.86 88.5698C238.86 89.476 238.818 90.4646 238.736 91.5355C238.654 92.6065 238.53 93.7186 238.365 94.8719C238.695 94.7072 238.983 94.5836 239.23 94.5012C239.477 94.3364 239.725 94.1717 239.972 94.0069C242.196 92.8536 244.297 91.9062 246.274 91.1648C248.333 90.341 250.599 89.7232 253.07 89.3113C253.482 89.2289 253.853 89.1877 254.182 89.1877C254.594 89.1053 255.006 89.0641 255.418 89.0641C256.983 89.0641 258.466 89.3936 259.866 90.0527C261.267 90.6293 262.503 91.4531 263.574 92.5241C264.727 93.5126 265.674 94.7072 266.416 96.1076C267.157 97.4257 267.651 98.8262 267.899 100.309C267.981 101.133 268.022 101.957 268.022 102.78C268.105 103.522 268.146 104.304 268.146 105.128ZM262.585 104.14C262.585 101.339 262.008 98.9497 260.855 96.9726C259.702 94.9131 257.56 93.8834 254.429 93.8834C252.864 93.8834 251.175 94.1717 249.363 94.7483C247.551 95.2426 245.862 95.8193 244.297 96.4783C242.731 97.1374 241.331 97.7552 240.095 98.3319C238.942 98.9086 238.2 99.1969 237.871 99.1969C237.377 102.574 236.759 105.952 236.017 109.33C235.358 112.707 234.699 115.632 234.04 118.103C233.711 119.504 233.299 120.945 232.805 122.428C232.393 123.829 232.063 125.229 231.816 126.63C231.569 127.948 231.404 129.554 231.322 131.449C231.239 133.343 231.198 134.991 231.198 136.392C231.198 136.886 231.198 137.545 231.198 138.369C231.198 139.11 231.239 139.852 231.322 140.593C231.487 141.334 231.692 141.993 231.94 142.57C232.269 143.147 232.763 143.517 233.422 143.682C233.67 143.765 233.917 143.806 234.164 143.806C234.493 143.806 234.782 143.806 235.029 143.806C236.841 143.806 238.612 143.394 240.342 142.57C242.155 141.746 243.844 140.717 245.409 139.481C246.974 138.245 248.416 136.886 249.734 135.403C251.052 133.838 252.164 132.355 253.07 130.954C255.624 127 257.848 122.716 259.743 118.103C261.638 113.49 262.585 108.835 262.585 104.14Z" fill="black"/>
<path d="M227.862 89.6821C227.862 90.7531 227.368 91.3709 226.38 91.5357C225.968 91.7004 225.556 91.7828 225.144 91.7828C224.814 91.7004 224.444 91.7004 224.032 91.7828C223.043 91.8652 222.055 91.9888 221.066 92.1535C220.16 92.3183 219.213 92.4831 218.224 92.6478C213.775 93.554 209.409 95.0368 205.125 97.0964C200.924 99.0735 197.258 101.71 194.128 105.005C193.222 105.993 192.48 107.064 191.903 108.218C191.409 109.289 191.162 110.524 191.162 111.925C191.162 112.831 191.656 113.531 192.645 114.025C193.633 114.52 194.828 115.014 196.228 115.508C197.711 116.003 199.276 116.538 200.924 117.115C202.654 117.691 204.219 118.515 205.62 119.586C207.103 120.657 208.338 122.058 209.327 123.788C210.315 125.435 210.81 127.577 210.81 130.213C210.81 133.261 210.233 136.186 209.08 138.987C207.926 141.788 206.32 144.3 204.26 146.525C202.201 148.666 199.812 150.355 197.093 151.591C194.375 152.909 191.492 153.568 188.443 153.568C185.56 153.568 183.006 152.95 180.782 151.714C178.64 150.479 176.828 148.872 175.345 146.895C173.862 144.918 172.75 142.694 172.009 140.222C171.267 137.669 170.896 135.074 170.896 132.437C170.896 131.943 170.896 131.325 170.896 130.584C170.979 129.76 171.061 128.978 171.144 128.236C171.308 127.495 171.556 126.836 171.885 126.259C172.215 125.682 172.709 125.394 173.368 125.394C173.78 125.394 174.192 125.559 174.604 125.888C175.098 126.218 175.345 126.63 175.345 127.124C175.345 129.019 175.551 131.119 175.963 133.426C176.457 135.733 177.199 137.875 178.187 139.852C179.176 141.829 180.494 143.518 182.141 144.918C183.789 146.236 185.807 146.895 188.196 146.895C190.338 146.895 192.398 146.442 194.375 145.536C196.352 144.547 198.082 143.27 199.565 141.705C201.13 140.14 202.325 138.369 203.148 136.392C204.055 134.332 204.508 132.232 204.508 130.09V128.854C204.508 127.453 204.013 126.3 203.025 125.394C202.119 124.488 200.965 123.746 199.565 123.17C198.164 122.511 196.64 121.893 194.993 121.316C193.345 120.739 191.821 120.08 190.421 119.339C189.02 118.515 187.826 117.527 186.837 116.373C185.931 115.22 185.478 113.696 185.478 111.801C185.478 109.824 185.89 107.929 186.713 106.117C187.62 104.305 188.773 102.698 190.173 101.298C195.034 96.6021 200.595 93.2245 206.855 91.165C213.199 89.0231 219.707 87.9521 226.38 87.9521C226.874 87.9521 227.245 88.1581 227.492 88.57C227.739 88.8995 227.862 89.2702 227.862 89.6821Z" fill="black"/>
<path d="M170.896 104.511C170.896 107.641 170.526 111.06 169.784 114.767C169.125 118.474 168.095 122.181 166.695 125.888C165.295 129.595 163.565 133.22 161.505 136.763C159.528 140.223 157.221 143.312 154.585 146.03C152.031 148.749 149.148 150.891 145.935 152.456C142.805 154.104 139.427 154.927 135.802 154.927C133.084 154.927 130.736 154.186 128.759 152.703C126.782 151.303 125.093 149.49 123.693 147.266C122.374 145.042 121.386 142.653 120.727 140.099C120.068 137.463 119.738 134.991 119.738 132.685C119.738 129.966 120.109 127.289 120.85 124.653C123.157 117.074 126.864 110.318 131.972 104.387C137.079 98.4557 143.299 94.0072 150.631 91.0415C150.796 90.9591 151.002 90.9179 151.249 90.9179C151.825 90.9179 152.237 91.1239 152.484 91.5358C152.814 91.9477 152.979 92.4008 152.979 92.8951C152.979 93.4717 152.649 93.966 151.99 94.3779C150.837 95.0369 149.684 95.696 148.53 96.355C147.377 96.9317 146.224 97.6731 145.07 98.5793C140.539 101.875 136.667 105.952 133.455 110.813C130.242 115.673 127.812 120.781 126.164 126.135C125.587 127.865 125.299 129.801 125.299 131.943C125.299 133.673 125.546 135.527 126.04 137.504C126.535 139.481 127.276 141.335 128.265 143.065C129.253 144.712 130.489 146.113 131.972 147.266C133.537 148.337 135.349 148.872 137.409 148.872C138.727 148.872 139.963 148.625 141.116 148.131C142.352 147.637 143.505 147.019 144.576 146.277C147.706 144.053 150.507 141.17 152.979 137.628C155.45 134.085 157.551 130.296 159.281 126.259C161.011 122.14 162.329 117.98 163.235 113.778C164.141 109.495 164.594 105.458 164.594 101.669V100.186C164.43 98.0438 163.688 96.2315 162.37 94.7486C161.134 93.2658 159.569 92.0713 157.674 91.1651C157.098 90.9179 156.521 90.712 155.944 90.5472C155.45 90.3825 154.956 90.1765 154.462 89.9294C153.638 89.5998 153.226 89.0232 153.226 88.1994C153.226 87.6227 153.391 87.1284 153.72 86.7165C154.05 86.3046 154.503 86.1399 155.079 86.2223H155.203C157.015 86.387 158.787 86.7989 160.517 87.458C162.329 88.117 163.935 89.0232 165.336 90.1765C166.736 91.3298 167.89 92.6891 168.796 94.2543C169.784 95.8196 170.402 97.5907 170.649 99.5679C170.814 100.392 170.896 101.215 170.896 102.039C170.896 102.781 170.896 103.604 170.896 104.511Z" fill="black"/>
<path d="M128.511 53.9703C128.511 54.7117 128.182 55.2884 127.523 55.7003C125.793 56.7712 123.733 57.6362 121.344 58.2953C119.038 58.8719 116.649 59.3662 114.177 59.7781C111.706 60.1076 109.234 60.3959 106.763 60.6431C104.374 60.8078 102.15 60.9726 100.09 61.1374C96.6302 61.3845 93.0467 61.7964 89.3396 62.3731C85.6325 62.9497 82.2961 64.1854 79.3304 66.0802C79.0832 66.2449 78.7125 66.4921 78.2182 66.8216C77.7239 67.1511 77.3944 67.3983 77.2297 67.563C76.4059 68.4692 75.788 69.5813 75.3761 70.8994C74.9642 72.2175 74.7583 73.4532 74.7583 74.6065C74.7583 77.1603 75.4173 79.3846 76.7354 81.2793C78.0535 83.1741 79.6599 84.9041 81.5546 86.4693C83.2846 87.8698 84.9734 89.2702 86.621 90.6707C88.351 92.0712 90.1222 93.4716 91.9345 94.8721C93.8293 96.3549 95.7652 97.9613 97.7423 99.6913C99.7195 101.421 101.532 103.275 103.179 105.252C104.827 107.229 106.145 109.371 107.134 111.678C108.205 113.984 108.74 116.456 108.74 119.092C108.74 122.552 107.916 125.806 106.269 128.854C104.621 131.82 102.726 134.538 100.584 137.01C96.8774 141.211 92.47 144.547 87.3624 147.019C82.3372 149.49 76.9825 150.726 71.2983 150.726C67.344 150.726 63.431 150.108 59.5591 148.872C55.6872 147.554 52.2273 145.701 49.1792 143.312C46.1311 140.923 43.6597 138.039 41.765 134.662C39.8702 131.202 38.9229 127.289 38.9229 122.923C38.9229 119.215 39.6643 115.344 41.1471 111.307C42.7123 107.188 44.6895 103.687 47.0785 100.803C47.5728 100.309 48.0671 100.062 48.5613 100.062C49.0556 100.062 49.4675 100.268 49.797 100.68C50.2089 101.009 50.4149 101.421 50.4149 101.916C50.4149 102.327 50.2913 102.698 50.0442 103.028C48.1494 105.911 46.543 108.918 45.2249 112.048C43.9892 115.179 43.3714 118.556 43.3714 122.181C43.3714 125.888 44.154 129.183 45.7192 132.067C47.3668 134.868 49.4675 137.257 52.0213 139.234C54.6575 141.211 57.6232 142.694 60.9184 143.682C64.2136 144.671 67.55 145.165 70.9276 145.165C76.1175 145.165 80.7308 144.094 84.7675 141.952C88.8041 139.728 92.5524 136.762 96.0124 133.055C97.8247 130.996 99.3488 128.854 100.584 126.63C101.82 124.405 102.438 121.852 102.438 118.968C102.438 116.826 102.026 114.932 101.202 113.284C100.379 111.636 99.2252 110.03 97.7423 108.465C96.1771 106.9 94.5707 105.458 92.9231 104.14C91.3579 102.739 89.7103 101.339 87.9803 99.9385C86.3327 98.7028 84.4379 97.3023 82.2961 95.7371C80.2365 94.1718 78.2594 92.5242 76.3647 90.7943C74.4699 88.9819 72.7811 87.0871 71.2983 85.11C69.8154 83.0505 68.8681 80.9498 68.4562 78.8079C68.2914 78.1489 68.1678 77.4898 68.0855 76.8308C68.0855 76.1718 68.0855 75.5127 68.0855 74.8537C68.0855 72.1351 68.5385 69.7049 69.4447 67.563C70.3509 65.4211 71.5866 63.6088 73.1518 62.1259C74.7994 60.5607 76.6942 59.2838 78.8361 58.2953C81.0603 57.3067 83.4494 56.5653 86.0032 56.071C88.3098 55.6591 90.6165 55.4531 92.9231 55.4531C95.2297 55.3708 97.5364 55.2472 99.843 55.0824C104.292 54.8353 108.699 54.6293 113.065 54.4646C117.431 54.2998 121.756 53.5172 126.04 52.1167C126.122 52.1167 126.205 52.1167 126.287 52.1167C126.369 52.0344 126.493 51.9932 126.658 51.9932C127.152 51.9932 127.564 52.1991 127.894 52.611C128.305 53.0229 128.511 53.476 128.511 53.9703Z" fill="black"/>
<path d="M106 109C113.504 110.875 124.674 116.5 109.321 124" stroke="black" stroke-width="5" stroke-linecap="round"/>
<path d="M53 109C55.3981 106.736 62.6932 103.567 72.6893 109C82.6854 114.433 89.7282 111.264 92 109" stroke="black" stroke-width="5" stroke-linecap="round"/>
<path d="M464.593 103.451C449.071 103.451 440.836 94.459 438.943 84.237H448.881C450.017 90.0105 454.844 95.0269 464.593 95.0269C474.436 95.0269 481.251 88.4015 481.251 77.8009V70.3237C478.506 74.9614 471.881 79.6938 462.037 79.6938C446.704 79.6938 435.252 67.6735 435.252 51.7726C435.252 35.7771 446.704 23.6621 462.037 23.6621C471.881 23.6621 478.506 28.3945 481.251 33.0323V24.9872H491V77.8955C491 92.8499 480.115 103.451 464.593 103.451ZM462.889 71.2702C473.868 71.2702 481.44 62.8465 481.44 51.7726C481.44 40.6988 473.868 32.2751 462.889 32.2751C452.005 32.2751 444.811 40.6988 444.811 51.7726C444.811 62.8465 452.005 71.2702 462.889 71.2702Z" fill="black"/>
<path d="M374.408 24.9872H384.157V33.2216C386.429 29.2464 392.581 23.6621 402.519 23.6621C415.296 23.6621 424.288 32.843 424.288 47.4188V79.1259H414.539V49.1225C414.539 38.1433 409.239 32.1804 400.436 32.1804C390.972 32.1804 384.157 41.0774 384.157 51.1101V79.1259H374.408V24.9872Z" fill="black"/>
<path d="M354.186 0C357.972 0 360.717 2.7448 360.717 6.43607C360.717 10.1274 357.972 12.8722 354.186 12.8722C350.495 12.8722 347.75 10.1274 347.75 6.43607C347.75 2.7448 350.495 0 354.186 0ZM359.108 79.2205H349.359V24.9871H359.108V79.2205Z" fill="black"/>
<path d="M285.397 0.946289H295.146V33.2213C297.418 29.2461 303.57 23.6619 313.508 23.6619C326.285 23.6619 335.277 32.8427 335.277 47.4186V79.1257H325.528V49.1222C325.528 38.143 320.228 32.1802 311.426 32.1802C301.961 32.1802 295.146 41.0771 295.146 51.1098V79.1257H285.397V0.946289Z" fill="black"/>
<path d="M273.455 60.7642C270.521 72.5006 260.583 80.451 247.995 80.451C231.904 80.451 220.168 68.3361 220.168 52.0566C220.168 35.7771 231.81 23.6621 247.805 23.6621C260.583 23.6621 270.615 31.8965 273.266 43.1596H263.328C261.151 36.7236 255.472 32.2751 247.805 32.2751C237.015 32.2751 229.727 40.7934 229.727 52.0566C229.727 63.3197 237.015 71.838 247.805 71.838C255.472 71.838 261.34 67.2949 263.517 60.7642H273.455Z" fill="black"/>
<path d="M178.741 80.451C163.408 80.451 151.955 68.2414 151.955 52.0566C151.955 35.8717 163.408 23.6621 178.741 23.6621C188.584 23.6621 195.209 28.3945 197.954 33.0323V24.9872H207.703V79.126H197.954V71.0809C195.209 75.7186 188.584 80.451 178.741 80.451ZM179.592 71.838C190.572 71.838 198.143 63.3197 198.143 52.0566C198.143 40.7934 190.572 32.2751 179.592 32.2751C168.708 32.2751 161.515 40.7934 161.515 52.0566C161.515 63.3197 168.708 71.838 179.592 71.838Z" fill="black"/>
<path d="M114.708 23.6621C130.704 23.6621 142.346 35.7771 142.346 52.0566C142.346 68.3361 130.704 80.451 114.708 80.451C98.6183 80.451 86.9766 68.3361 86.9766 52.0566C86.9766 35.7771 98.6183 23.6621 114.708 23.6621ZM114.708 32.2751C103.919 32.2751 96.536 40.7934 96.536 52.0566C96.536 63.3197 103.919 71.838 114.708 71.838C125.404 71.838 132.786 63.3197 132.786 52.0566C132.786 40.7934 125.404 32.2751 114.708 32.2751Z" fill="black"/>
<path d="M39.7522 80.8294C16.8474 80.8294 0 64.0766 0 41.1718C0 18.2669 16.8474 1.51416 39.7522 1.51416C59.3444 1.51416 72.8791 12.8719 76.8543 28.7728H66.727C63.5089 18.0776 53.7602 10.695 39.9415 10.695C22.5263 10.695 9.93806 23.3779 9.93806 41.1718C9.93806 58.871 22.6209 71.6485 39.9415 71.6485C54.1388 71.6485 64.7394 63.3194 67.4842 52.5295H77.6115C74.2988 68.3358 59.8177 80.8294 39.7522 80.8294Z" fill="black"/>
</svg>
